<svg xmlns="http://www.w3.org/2000/svg" height="64" width="306.5">
  <path d="M63.03 39.75C58.76 56.9 41.4 67.32 24.25 63.05 7.1 58.77-3.32 41.4.95 24.27 5.24 7.12 22.6-3.3 39.74.97 56.87 5.23 67.3 22.6 63.03 39.74z" fill="#f7931a"/>
  <path d="M46.1 27.45c.64-4.26-2.6-6.55-7.04-8.08l1.44-5.77-3.5-.87-1.4 5.6-2.82-.65 1.4-5.65-3.5-.88-1.44 5.77L27 16.4v-.02l-4.84-1.2-.93 3.74s2.6.6 2.55.63c1.42.36 1.68 1.3 1.63 2.04l-1.63 6.56c.1.03.23.06.37.12l-.37-.1-2.3 9.2c-.17.45-.6 1.1-1.6.85.03.05-2.56-.64-2.56-.64l-1.73 4 4.57 1.15c.85.2 1.68.43 2.5.64l-1.45 5.83 3.5.87 1.43-5.77 2.8.73-1.43 5.74 3.5.88 1.46-5.83c6 1.14 10.5.68 12.4-4.73 1.5-4.36-.1-6.88-3.24-8.52 2.3-.53 4.02-2.04 4.48-5.15zM38.08 38.7c-1.08 4.35-8.43 2-10.8 1.4l1.92-7.72c2.38.6 10 1.77 8.88 6.3zm1.1-11.32c-1 3.97-7.1 1.95-9.1 1.46l1.75-7c1.98.48 8.37 1.4 7.34 5.54z" fill="#FFF"/>
  <path fill="#4d4d4d" d="M93.77 19.37c2.6 0 4.84.46 6.72 1.37 1.9.93 3.45 2.17 4.7 3.73 1.24 1.57 2.16 3.4 2.75 5.5.6 2.12.9 4.38.9 6.8 0 3.74-.7 7.26-2.07 10.58-1.38 3.33-3.25 6.2-5.63 8.67-2.38 2.46-5.2 4.4-8.43 5.82C89.5 63.28 85.97 64 82.2 64l-2.56-.05s-2.6-.15-4.16-.36c-1.57-.23-3.23-.55-5-.98-1.74-.43-3.4-1.03-4.97-1.8L79.53 1.97 92.07 0l-5 20.9c1.06-.48 2.14-.85 3.22-1.13 1.07-.26 2.23-.4 3.47-.4zM83.25 54.04c1.9 0 3.67-.47 5.34-1.38 1.67-.92 3.12-2.15 4.33-3.7 1.2-1.53 2.17-3.27 2.87-5.2s1.06-3.98 1.06-6.1c0-2.58-.44-4.6-1.3-6.06-.86-1.46-2.46-2.2-4.78-2.2-.76 0-1.74.15-2.95.4-1.22.3-2.3.86-3.3 1.72l-5.33 22.2c.32.04.6.1.85.15.24.05.5.1.76.12.3.02.6.04 1 .04h1.45zM121.85 62.87h-11.98L120 20.27h12.06l-10.2 42.6zm5.84-47.8c-1.7 0-3.2-.5-4.55-1.5-1.36-.98-2.03-2.5-2.03-4.56 0-1.13.23-2.2.7-3.2.45-1 1.05-1.85 1.8-2.58.77-.73 1.65-1.3 2.64-1.75 1-.43 2.07-.64 3.2-.64 1.68 0 3.2.5 4.54 1.5 1.34 1 2.02 2.52 2.02 4.57 0 1.14-.23 2.2-.7 3.2-.44 1-1.05 1.86-1.8 2.6-.76.72-1.64 1.3-2.64 1.73-1 .44-2.06.65-3.2.65zM142.56 9.66l12.56-1.95-3.1 12.57h13.46l-2.43 9.87H149.7l-3.57 14.9c-.33 1.25-.52 2.4-.57 3.48-.06 1.1.08 2.02.4 2.8.33.8.9 1.4 1.74 1.82.84.43 2.04.65 3.6.65 1.3 0 2.56-.13 3.78-.37 1.2-.24 2.44-.58 3.68-1.02l.9 9.25c-1.63.6-3.38 1.1-5.27 1.54-1.9.42-4.15.63-6.74.63-3.72 0-6.6-.55-8.66-1.65-2.06-1.1-3.5-2.63-4.38-4.54-.86-1.92-1.24-4.12-1.13-6.6.1-2.5.47-5.1 1.12-7.86l7.94-33.52zM164.95 45.86c0-3.67.6-7.13 1.78-10.37 1.2-3.25 2.9-6.1 5.1-8.52 2.22-2.42 4.9-4.34 8.07-5.75 3.15-1.4 6.68-2.1 10.57-2.1 2.43 0 4.6.22 6.5.7 1.93.45 3.67 1.05 5.24 1.8l-4.12 9.4c-1.08-.43-2.2-.82-3.36-1.17-1.16-.36-2.58-.53-4.25-.53-4 0-7.17 1.38-9.52 4.13-2.35 2.75-3.53 6.45-3.53 11.1 0 2.75.6 4.98 1.8 6.68 1.17 1.7 3.37 2.55 6.55 2.55 1.57 0 3.08-.17 4.53-.5 1.46-.32 2.76-.72 3.9-1.2l.9 9.63c-1.53.6-3.2 1.12-5.03 1.58-1.84.46-4.03.7-6.57.7-3.35 0-6.18-.5-8.5-1.46-2.32-.98-4.24-2.28-5.75-3.93-1.52-1.64-2.6-3.57-3.28-5.78-.67-2.22-1.02-4.54-1.02-6.96zM218.2 64c-2.86 0-5.34-.44-7.45-1.3-2.1-.87-3.84-2.08-5.22-3.65-1.38-1.56-2.4-3.4-3.12-5.54-.7-2.13-1.04-4.5-1.04-7.07 0-3.25.52-6.5 1.58-9.73 1.05-3.24 2.6-6.15 4.66-8.74 2.04-2.6 4.56-4.7 7.53-6.37 2.96-1.65 6.37-2.48 10.2-2.48 2.8 0 5.28.44 7.4 1.3 2.14.87 3.9 2.1 5.28 3.65 1.38 1.57 2.42 3.4 3.12 5.55.7 2.13 1.05 4.5 1.05 7.08 0 3.24-.5 6.48-1.53 9.73-1.02 3.22-2.54 6.14-4.54 8.74-2 2.6-4.5 4.7-7.5 6.35-2.98 1.65-6.46 2.48-10.4 2.48zm6-34.67c-1.78 0-3.35.52-4.7 1.54-1.35 1.03-2.48 2.33-3.4 3.9-.92 1.56-1.6 3.27-2.07 5.13-.46 1.87-.68 3.63-.68 5.3 0 2.7.43 4.8 1.3 6.33.86 1.5 2.42 2.26 4.7 2.26 1.77 0 3.33-.52 4.7-1.55 1.33-1.02 2.46-2.32 3.4-3.9.9-1.55 1.6-3.26 2.06-5.13.46-1.86.7-3.63.7-5.3 0-2.7-.44-4.8-1.3-6.32-.87-1.5-2.44-2.27-4.7-2.27zM255.23 62.87h-12l10.13-42.6h12.07l-10.2 42.6zm5.83-47.8c-1.68 0-3.2-.5-4.54-1.5-1.35-.98-2.02-2.5-2.02-4.56 0-1.13.23-2.2.7-3.2.44-1 1.05-1.85 1.8-2.58.76-.73 1.65-1.3 2.64-1.75 1-.43 2.06-.64 3.2-.64 1.67 0 3.2.5 4.53 1.5 1.35 1 2.03 2.52 2.03 4.57 0 1.14-.24 2.2-.7 3.2s-1.05 1.86-1.8 2.6c-.77.72-1.64 1.3-2.64 1.73-1 .44-2.07.65-3.2.65zM274.07 22.2c.9-.26 1.93-.58 3.03-.93 1.1-.35 2.35-.67 3.74-.96 1.36-.3 2.9-.54 4.6-.73 1.7-.2 3.64-.28 5.8-.28 6.32 0 10.67 1.83 13.08 5.5 2.4 3.67 2.82 8.7 1.26 15.06l-5.5 23H288l5.34-22.5c.33-1.42.6-2.78.78-4.1.2-1.32.18-2.48-.05-3.5-.2-.98-.7-1.8-1.5-2.42-.78-.62-1.98-.93-3.6-.93-1.56 0-3.15.18-4.77.5l-7.86 32.96h-12.07l9.8-40.65z"/>
</svg>