<svg version="1.1" xmlns="http://www.w3.org/2000/svg" xmlns:xlink="http://www.w3.org/1999/xlink" x="0px" y="0px" viewBox="0 0 306.5 64" enable-background="new 0 0 306.5 64" xml:space="preserve">
<path fill="#F7931A" d="M63.03,39.75C58.76,56.9,41.4,67.32,24.25,63.05C7.1,58.77-3.32,41.4,0.95,24.27
	C5.24,7.12,22.6-3.3,39.74,0.97C56.87,5.23,67.3,22.6,63.03,39.74V39.75z"/>
<path fill="#FFFFFF" d="M46.1,27.45c0.64-4.26-2.6-6.55-7.04-8.08l1.44-5.77L37,12.73l-1.4,5.6l-2.82-0.65l1.4-5.65l-3.5-0.88
	l-1.44,5.77L27,16.4v-0.02l-4.84-1.2l-0.931,3.74c0,0,2.601,0.6,2.55,0.63c1.421,0.36,1.681,1.3,1.631,2.04l-1.631,6.56
	c0.101,0.03,0.23,0.06,0.37,0.12l-0.37-0.1l-2.3,9.2c-0.17,0.45-0.6,1.101-1.6,0.851c0.03,0.049-2.561-0.641-2.561-0.641l-1.729,4
	l4.57,1.15c0.85,0.199,1.68,0.43,2.5,0.64l-1.45,5.83l3.5,0.87l1.43-5.771l2.8,0.729l-1.43,5.74l3.5,0.881l1.46-5.83
	c6,1.14,10.5,0.68,12.4-4.73c1.5-4.359-0.101-6.88-3.24-8.52c2.3-0.53,4.02-2.041,4.479-5.15L46.1,27.45z M38.08,38.7
	C37,43.05,29.65,40.7,27.28,40.1l1.921-7.72c2.38,0.601,10,1.771,8.88,6.3V38.7z M39.18,27.38c-1,3.97-7.1,1.95-9.1,1.46l1.75-7
	c1.979,0.48,8.37,1.4,7.34,5.54H39.18z"/>
<path fill="#4D4D4D" d="M93.77,19.37c2.601,0,4.84,0.46,6.721,1.37c1.899,0.93,3.449,2.17,4.699,3.73c1.24,1.57,2.16,3.4,2.75,5.5
	c0.601,2.12,0.9,4.379,0.9,6.799c0,3.74-0.7,7.26-2.07,10.58c-1.38,3.33-3.25,6.2-5.63,8.67c-2.38,2.461-5.2,4.4-8.43,5.82
	C89.5,63.279,85.97,64,82.2,64l-2.561-0.05c0,0-2.6-0.15-4.16-0.36c-1.569-0.23-3.229-0.55-5-0.98
	c-1.74-0.43-3.399-1.029-4.97-1.799L79.53,1.97L92.07,0l-5,20.9c1.061-0.48,2.141-0.85,3.221-1.13c1.069-0.26,2.229-0.4,3.47-0.4
	H93.77z M83.25,54.04c1.899,0,3.67-0.47,5.34-1.38c1.67-0.92,3.12-2.15,4.33-3.7c1.2-1.53,2.17-3.271,2.87-5.2s1.06-3.98,1.06-6.1
	c0-2.58-0.439-4.6-1.3-6.06c-0.86-1.46-2.46-2.2-4.78-2.2c-0.76,0-1.74,0.15-2.95,0.4c-1.22,0.3-2.3,0.86-3.3,1.72l-5.33,22.201
	c0.32,0.039,0.601,0.1,0.851,0.149c0.239,0.05,0.5,0.101,0.76,0.12c0.3,0.02,0.6,0.039,1,0.039h1.45V54.04z M121.85,62.87H109.87
	L120,20.27h12.06l-10.2,42.6H121.85z M127.69,15.07c-1.699,0-3.199-0.5-4.55-1.5c-1.36-0.98-2.03-2.5-2.03-4.56
	c0-1.13,0.23-2.2,0.7-3.2c0.45-1,1.05-1.85,1.8-2.58c0.771-0.73,1.65-1.3,2.641-1.75c1-0.43,2.069-0.64,3.2-0.64
	c1.68,0,3.199,0.5,4.539,1.5c1.341,1,2.021,2.52,2.021,4.57c0,1.14-0.23,2.2-0.7,3.2c-0.439,1-1.05,1.86-1.8,2.6
	c-0.76,0.72-1.64,1.3-2.64,1.73c-1,0.44-2.061,0.65-3.2,0.65L127.69,15.07z M142.56,9.66l12.561-1.95l-3.101,12.57h13.46l-2.43,9.87
	H149.7l-3.57,14.9c-0.33,1.25-0.521,2.4-0.57,3.479c-0.06,1.101,0.08,2.021,0.4,2.801c0.33,0.8,0.899,1.4,1.74,1.82
	c0.84,0.43,2.039,0.649,3.6,0.649c1.3,0,2.56-0.13,3.78-0.37c1.199-0.24,2.439-0.58,3.68-1.02l0.9,9.25
	c-1.631,0.6-3.381,1.1-5.271,1.54c-1.9,0.42-4.15,0.63-6.74,0.63c-3.72,0-6.6-0.551-8.66-1.65c-2.06-1.1-3.5-2.63-4.38-4.539
	c-0.859-1.92-1.239-4.121-1.13-6.601c0.101-2.5,0.47-5.101,1.12-7.86l7.94-33.52H142.56z M164.95,45.859
	c0-3.67,0.6-7.129,1.779-10.369c1.2-3.25,2.9-6.1,5.101-8.52c2.22-2.42,4.899-4.34,8.069-5.75c3.15-1.4,6.681-2.1,10.57-2.1
	c2.43,0,4.6,0.22,6.5,0.7c1.93,0.45,3.67,1.05,5.24,1.8l-4.12,9.4c-1.08-0.43-2.2-0.82-3.36-1.17c-1.16-0.36-2.58-0.53-4.25-0.53
	c-4,0-7.17,1.38-9.52,4.13c-2.351,2.75-3.53,6.45-3.53,11.1c0,2.75,0.6,4.979,1.8,6.681c1.17,1.699,3.37,2.549,6.55,2.549
	c1.57,0,3.08-0.17,4.53-0.5c1.46-0.319,2.76-0.719,3.9-1.199l0.899,9.63c-1.529,0.601-3.199,1.12-5.029,1.58
	c-1.84,0.46-4.03,0.7-6.57,0.7c-3.35,0-6.18-0.5-8.5-1.461c-2.32-0.979-4.24-2.279-5.75-3.93c-1.521-1.64-2.6-3.57-3.28-5.779
	c-0.67-2.221-1.02-4.541-1.02-6.961H164.95z M218.2,64c-2.86,0-5.341-0.439-7.45-1.3c-2.101-0.87-3.84-2.08-5.221-3.65
	c-1.38-1.56-2.399-3.399-3.119-5.54c-0.7-2.13-1.04-4.5-1.04-7.07c0-3.25,0.52-6.5,1.58-9.729c1.05-3.239,2.6-6.15,4.659-8.74
	c2.04-2.6,4.561-4.7,7.53-6.37c2.96-1.65,6.37-2.48,10.2-2.48c2.8,0,5.28,0.44,7.4,1.3c2.14,0.87,3.899,2.1,5.279,3.65
	c1.38,1.57,2.42,3.4,3.12,5.55c0.7,2.13,1.05,4.5,1.05,7.08c0,3.239-0.5,6.479-1.529,9.729c-1.021,3.221-2.54,6.141-4.54,8.74
	s-4.5,4.7-7.5,6.35c-2.98,1.65-6.46,2.48-10.4,2.48H218.2z M224.2,29.33c-1.78,0-3.351,0.52-4.7,1.54
	c-1.351,1.03-2.48,2.33-3.4,3.899c-0.92,1.561-1.6,3.271-2.07,5.131c-0.46,1.869-0.68,3.629-0.68,5.3c0,2.7,0.43,4.8,1.3,6.329
	c0.86,1.5,2.42,2.261,4.7,2.261c1.771,0,3.33-0.521,4.7-1.55c1.33-1.02,2.46-2.32,3.4-3.9c0.899-1.55,1.6-3.26,2.06-5.13
	c0.46-1.86,0.7-3.63,0.7-5.3c0-2.7-0.44-4.801-1.3-6.32c-0.87-1.5-2.44-2.27-4.7-2.27L224.2,29.33z M255.23,62.87h-12l10.13-42.6
	h12.07L255.23,62.87z M261.06,15.07c-1.68,0-3.2-0.5-4.54-1.5c-1.35-0.98-2.02-2.5-2.02-4.56c0-1.13,0.229-2.2,0.7-3.2
	c0.439-1,1.05-1.85,1.8-2.58c0.76-0.73,1.649-1.3,2.64-1.75c1-0.43,2.061-0.64,3.2-0.64c1.67,0,3.2,0.5,4.53,1.5
	c1.35,1,2.029,2.52,2.029,4.57c0,1.14-0.239,2.2-0.699,3.2c-0.461,1-1.051,1.86-1.801,2.6c-0.77,0.72-1.64,1.3-2.64,1.73
	c-1,0.44-2.07,0.65-3.2,0.65V15.07z M274.07,22.2c0.9-0.26,1.931-0.58,3.03-0.93c1.101-0.35,2.351-0.67,3.74-0.96
	c1.36-0.3,2.899-0.54,4.6-0.73c1.7-0.2,3.641-0.28,5.8-0.28c6.32,0,10.67,1.83,13.08,5.5c2.4,3.67,2.82,8.7,1.26,15.06l-5.5,23H288
	l5.34-22.5c0.33-1.42,0.6-2.779,0.78-4.1c0.199-1.32,0.18-2.48-0.051-3.5c-0.199-0.98-0.699-1.8-1.5-2.42
	c-0.779-0.62-1.979-0.93-3.6-0.93c-1.56,0-3.15,0.18-4.77,0.5l-7.86,32.96h-12.07l9.8-40.65V22.2z"/>
</svg>
