<svg xmlns="http://www.w3.org/2000/svg" viewBox="-861 0 2682 560">
  <path fill="#F90" d="M940.44 281.56c0 152.44-123.2 275.64-275.64 275.64S389.16 434.3 389.16 281.87 512.65 6.22 664.8 6.22c152.44 0 275.64 122.9 275.64 275.34z"/>
  <path fill="#C00" d="M293.33 6.22c-151.2 0-273.77 123.5-273.77 275.02 0 152.45 123.5 275.65 275.64 275.65 71.56 0 136.9-26.77 185.42-71.57 9.96-9.33 19.3-18.66 28-29.55h-56c-8.1-9.34-14.93-18.67-21.15-28h97.68c6.23-9.34 11.2-19.6 15.56-29.87H415.6c-4.36-9.32-8.4-19.28-11.5-29.23h152.43c9.34-27.38 14.32-56.94 14.32-87.1 0-20.55-2.18-40.46-6.23-59.13H396c1.87-9.95 4.67-19.6 7.78-29.24h152.44c-3.1-9.96-7.15-19.9-11.82-29.56H415.6c4.67-9.95 9.96-19.6 15.55-28.93h97.38c-6.22-10.26-13.37-20.2-21.15-29.55h-54.45c8.4-9.95 17.74-19.28 28-28C431.78 32.35 366.43 5.6 295.2 5.6h-1.87v.62z"/>
  <path fill="#FCB340" d="M912.44 425.6c1.87 0 3.1 0 4.98 1.24 1.25.63 2.5 1.87 3.1 3.12.95 1.55 1.26 3.1 1.26 4.66s0 3.1-1.25 4.36c-.62 1.86-1.86 3.1-3.1 3.73-1.56.63-3.12 1.25-4.67 1.25s-2.5-.62-4.05-1.24c-1.23-.92-2.48-1.86-3.1-3.1-.93-1.56-1.24-3.1-1.24-4.67s0-3.1 1.24-4.35c.62-1.56 1.87-3.1 3.1-3.1 1.57-1.26 3.12-1.57 4.37-1.57m0 1.57c-.94 0-2.18 0-3.12.93-1.24.62-2.17 1.56-3.1 3.1l-.63 3.12c0 1.56 0 3.1.94 4.05l3.1 2.48c.94.63 2.2.94 3.12.94 1.86 0 3.1 0 4.04-.63 1.25-.94 2.18-1.56 3.1-3.1l.64-3.13c0-1.55 0-3.1-.94-4.04-.62-1.24-1.55-2.18-3.1-3.1l-3.12-.63m-4.04 12.44v-9.32h5.28c.63 0 .94 0 1.25.93.6 0 .92.95.92 1.26 0 .93 0 1.24-.93 1.86 0 .62-1.26.94-1.88.94h.62l1.56 2.17 1.56 1.87h-1.87l-1.25-1.56-1.56-2.17h-1.88v4.04h-1.55m1.24-5.6h3.74V432.45h-.62c0-.62-.62-.62-1.24-.62h-1.87v3.1"/>
  <path fill="#006" d="M386.67 360.9l3.73-24.9-7.78.62c-10.27 0-11.5-5.6-10.58-9.33l9.96-50.4h15.56l3.1-28h-14.62l3.12-17.43h-30.5c-.93.62-17.42 96.44-17.42 108.26 0 17.1 9.34 24.9 23.34 24.9 10.26 0 18.66-3.12 21.78-4.05l.3.3zm9.33-47.92c0 41.7 27.38 51.33 50.7 51.33 21.8 0 32.68-4.66 32.68-4.66l5.3-28s-18.68 7.16-33 7.16c-32.04 0-26.44-23.33-26.44-23.33h60.98s3.73-18.67 3.73-26.76c0-19.28-10.57-42.92-42.62-42.92-29.55 0-51.33 31.1-51.33 67.2zm51.33-41.38c16.5 0 13.38 18.67 13.38 20.22h-32.34c0-1.86 3.1-20.22 18.66-20.22h.3zm185.74 89.3l5.28-32.37S623.74 336 613.48 336c-20.54 0-28.94-16.18-28.94-32.98 0-34.84 18.05-53.82 37.96-53.82 14.6 0 26.74 8.7 26.74 8.7l4.67-31.1s-13.68-10.27-28.92-10.27c-46.05 0-72.18 31.74-72.18 87.1 0 36.4 19.3 61.3 54.44 61.3 9.96 0 25.5-4.04 25.5-4.04h.33zM224.9 245.77c-19.92 0-35.17 6.22-35.17 6.22l-4.35 25.5s12.44-5.28 32.04-5.28c10.9 0 18.67 1.25 18.67 10.27 0 5.28-.94 7.46-.94 7.46l-12.45-.94c-28.6 0-51.94 10.58-51.94 43.56 0 25.5 17.42 31.1 28 31.1 20.84 0 29.24-12.43 29.55-12.43v10.57h25.83l11.52-80.9c0-34.2-29.87-35.45-40.45-35.45l-.3.3zm4.66 65.33c.62 5.3-1.25 28.63-18.67 28.63-9.34 0-11.83-7.15-11.83-11.2 0-8.08 4.35-17.73 26.13-17.73h4.67l-.3.3zm63.77 52.9c6.23 0 43.56 1.24 43.56-37.33 0-36.72-34.23-29.56-34.23-44.18 0-7.48 5.3-9.35 15.55-9.35l20.22.94 3.74-25.52s-10.27-2.18-27.07-2.18c-21.77 0-43.54 8.7-43.54 38.58 0 33.6 36.7 30.17 36.7 44.17 0 9.34-10.26 10.27-18.66 10.27-13.38 0-25.5-4.98-25.82-4.67l-3.74 25.52c.63 0 8.4 3.73 32.98 3.73h.3zM875.1 222.13l-4.97 39.83s-11.2-15.56-28.62-15.56c-32.34 0-49.14 32.67-49.14 69.7 0 24.25 11.82 47.9 36.4 47.9 17.73 0 28-12.45 28-12.45l-1.56 10.58h28l22.7-140h-30.8zm-12.43 76.54c0 15.55-7.78 36.7-23.65 36.7-10.58 0-15.55-9.33-15.55-22.7 0-22.72 10.26-37.96 23.33-37.96 10.27 0 15.56 7.48 15.56 24.28l.3-.3zM66.22 362.13l17.73-105.77 3.12 105.77h19.6l37.95-105.77-16.8 105.77H158l23.02-140h-47.9l-28 85.56-1.25-85.57H60.3l-23.63 140h29.55z"/>
  <path fill="#006" d="M518.58 362.44c8.1-48.22 11.2-87.1 36.1-79.33 3.72-18.66 12.43-34.83 16.16-42.92 0 0-1.24-1.87-8.7-1.87-13.38 0-31.12 26.77-31.12 26.77l3.1-16.5h-27.36L488.1 362.14h30.48v.3zm176.1-116.66c-20.24 0-35.48 6.22-35.48 6.22l-4.36 25.5s12.45-5.28 32.05-5.28c10.88 0 18.66 1.25 18.66 10.27 0 5.28-.63 7.46-.63 7.46l-12.44-.94c-28.94 0-52.28 10.58-52.28 43.56 0 25.5 17.43 31.1 28 31.1 20.85 0 29.25-12.43 29.56-12.43v10.57h25.82l11.5-80.9c0-34.2-30.17-35.45-40.43-35.45v.3zM699 311.1c.62 5.3-1.24 28.63-18.66 28.63-9.34 0-11.52-7.15-11.52-11.2 0-8.08 4.36-17.73 25.83-17.73h4.35v.3zm65.65 51.34c4.66-35.77 13.38-85.55 36.7-79.33 3.12-18.66 0-18.66-7.77-18.66-13.07 0-15.55.63-15.55.63l2.17-16.5h-27.37l-18.67 113.56h30.5v.3z"/>
  <path fill="#FFF" d="M394.13 351.56l3.74-24.9-7.47.94c-10.27 0-11.5-5.3-10.9-9.33l8.4-51.02h15.57l3.73-28h-14.3l2.48-17.12h-29.25c-.62.63-17.42 96.45-17.42 108.27 0 17.42 9.97 24.9 23.65 24.9 10.58 0 18.67-3.12 21.78-3.75zm9.34-47.3c0 41.38 27.37 51.34 50.7 51.34 21.78 0 31.12-4.98 31.12-4.98l4.97-28s-16.18 6.85-31.1 6.85c-31.12 0-25.84-23.65-25.84-23.65h59.12s4.35-18.66 4.35-26.75c0-19.3-9.33-42.94-42-42.94-29.87 0-51.65 31.74-51.65 67.82l.32.32zm51.64-41.68c16.5 0 13.4 18.66 13.4 20.22H435.8c0-2.18 3.1-20.53 19.3-20.53v.3zm185.75 88.98l5.28-31.74s-14.3 7.16-24.26 7.16c-20.85 0-29.25-15.56-29.25-32.67 0-34.2 18.05-53.8 37.96-53.8 14.93 0 26.75 8.4 26.75 8.4l4.98-31.12s-17.72-7.47-32.97-7.47c-34.22 0-66.9 29.57-66.9 84.63 0 36.7 17.75 60.67 52.9 60.67 9.34 0 25.5-3.73 25.5-3.73v-.3zM232.67 236.44c-20.22 0-35.78 7.16-35.78 7.16l-4.05 24.9s12.44-4.68 32.04-4.68c10.88 0 18.66 1.25 18.66 9.96 0 5.3-.63 7.15-.63 7.15l-12.44-.62c-25.83-.3-52.28 11.2-52.28 43.25 0 25.83 17.42 31.74 28 31.74 21.16 0 29.87-13.4 30.5-13.4l-.94 10.9h25.82l11.5-80.9c0-34.2-29.86-35.45-40.43-35.45zm6.22 66.27c.6 5-3.12 28-20.54 28-9.34 0-11.83-6.83-11.83-10.88 0-8.1 4.36-17.73 25.83-17.73 4.97 0 5.6.92 6.22.92l.3-.3zm61.6 51.97c6.83 0 44.48 1.86 44.48-37.34 0-36.4-34.85-29.24-34.85-43.55 0-7.47 5.6-9.96 15.56-9.96 4.66 0 20.52 1.56 20.52 1.56l3.74-26.14s-10.27-2.5-27.07-2.5c-21.8 0-43.57 8.73-43.57 38.28 0 33.6 36.4 30.18 36.4 44.5 0 9.32-10.26 10.26-18.04 10.26-13.7 0-26.14-4.36-26.14-4.36l-4.05 25.82c.95 0 8.4 3.12 33 3.12v.3zm583.94-140.94l-6.84 39.2s-10.9-15.55-28-15.55c-27.07 0-49.78 32.66-49.78 70 0 23.95 12.45 47.6 36.7 47.6 17.43 0 27.08-11.82 27.08-11.82l-1.25 10.26h28l22.72-139.38h-28.63v-.3zm-14 76.54c0 15.55-7.77 36.1-23.64 36.1-10.9 0-15.56-9.35-15.56-23.04 0-22.7 9.96-37.33 22.7-37.33 10.6 0 16.2 6.84 16.2 23.96l.3.3zM74 353.42l17.73-105.77 3.1 105.77h19.93l37.33-105.77-16.5 105.77h30.18l23.02-140h-46.67L113.5 299.3l-1.55-85.88H69.33l-23.64 140H74zm452.04 0c8.72-48.53 10.27-88.04 30.5-80.9 3.73-18.65 7.15-25.8 10.88-34.2h-5.3c-13.05 0-22.7 18.04-22.7 18.04l2.5-16.8h-27.7l-18.66 113.86h30.48zm182.63-116.98c-20.23 0-35.78 6.85-35.78 6.85l-4.05 24.88s12.44-4.67 32.04-4.67c10.88 0 18.66 1.26 18.66 9.97 0 5.3-.94 7.15-.94 7.15l-12.44-.62c-25.5 0-52.27 11.2-52.27 43.55 0 25.83 17.43 31.74 28 31.74 20.86 0 29.88-13.4 30.2-13.4l-.95 10.9H737l11.5-80.9c0-34.2-29.86-35.46-40.44-35.46h.63zm6.22 66.27c.6 5-3.12 28-20.85 28-9.34 0-11.52-6.83-11.52-10.88 0-8.1 4.67-17.73 26.14-17.73 5.28 0 5.6.92 6.22.92v-.3zm57.54 50.72c8.7-48.53 10.27-88.04 30.5-80.9 3.73-18.65 7.15-25.8 10.88-34.2h-5.6c-13.07 0-22.7 18.04-22.7 18.04l2.48-16.8h-27.38l-18.67 113.86h30.5zm140-17.42c1.87 0 3.1 0 4.67.93 1.57.94 2.5 1.87 3.12 3.1.93 1.88 1.56 3.13 1.56 4.68s-.63 3.12-1.25 4.68c-.93 1.24-1.86 2.5-3.1 3.1-1.56.94-3.12 1.25-4.67 1.25-1.25 0-3.12 0-4.05-1.24-1.55-.63-2.48-1.88-3.1-3.12-.93-1.56-1.56-3.1-1.56-4.67s.63-3.1 1.25-4.34c.92-1.56 1.86-2.5 3.1-3.12 1.87-.93 3.1-1.24 4.67-1.24m0 1.24c-.94 0-2.18.63-3.12 1.25-1.55.6-2.17 1.54-3.1 2.48l-.94 3.73s0 2.5.95 3.74c.62 1.25 1.55 2.18 3.1 3.1l3.12.64c1.55 0 3.1 0 4.04-.94l3.12-3.1.62-3.74s0-2.5-.93-3.73c-.6-.94-1.55-1.87-3.1-2.5-.93-.62-2.18-1.24-3.1-1.24m-4.06 12.45v-9.34h5.3c.62 0 .93.63 1.24.94.62.62.62.93.62 1.55 0 .63 0 1.25-.62 1.87l-2.18.62c.62 0 .62 0 .93.62l1.56 1.87 1.23 1.88h-1.86l-.62-1.56-1.87-2.5h-2.8v3.75h-1.56m.94-5.3h3.73l.6-1.55v-.62l-.92-.62h-3.74v3.1"/>
</svg>