<svg xmlns="http://www.w3.org/2000/svg" viewBox="-50.72 152.26 1118.6 233.57">
  <path fill="#253B80" d="M357.68 204.52H304.8c-3.64 0-6.66 2.63-7.28 6.2l-21.37 135.86c-.46 2.56 1.55 5.03 4.34 5.03h25.3c3.57 0 6.66-2.62 7.28-6.18l5.73-36.7c.55-3.48 3.65-6.2 7.3-6.2h16.7c34.85 0 54.98-16.8 60.4-50.3 2.32-14.57 0-26.1-6.8-34.08-7.6-8.9-20.92-13.54-38.72-13.54v-.08zm6.2 49.54c-2.87 19.05-17.43 19.05-31.44 19.05h-8.05l5.64-35.37c.3-2.17 2.17-3.87 4.33-3.87H338c9.54 0 18.6 0 23.24 5.57 2.78 3.25 3.64 8.05 2.55 14.7l.07-.06zm152.12-.6h-25.32c-2.16 0-4.02 1.53-4.33 3.86l-1.16 6.96-1.8-2.55c-5.4-7.98-17.8-10.6-29.95-10.6-28.03 0-51.87 21.2-56.52 50.93-2.48 14.87.93 29.04 9.3 38.95 7.73 9.14 18.88 12.93 32.04 12.93 22.6 0 35.15-14.55 35.15-14.55l-1.16 6.97c-.47 2.78 1.55 5.26 4.33 5.26h22.83c3.64 0 6.74-2.62 7.28-6.18l13.7-86.86c.56-2.64-1.54-5.1-4.25-5.1H516zm-35.3 49.38c-2.56 14.48-13.94 24.23-28.65 24.23-7.43 0-13.32-2.32-17.03-6.97-3.87-4.33-5.2-10.68-4.03-17.8 2.32-14.25 13.93-24.3 28.4-24.3 7.2 0 13.17 2.3 16.88 6.95 3.87 4.5 5.42 10.84 4.34 17.8l.08.1zm170.4-49.4h-25.55c-2.32 0-4.65 1.24-6.04 3.26l-35.14 51.7-14.94-49.77c-.93-3.1-3.87-5.26-6.97-5.26H537.3c-2.95 0-5.12 3.1-4.1 5.88l28 82.38-26.47 37.16c-2 3.1 0 6.96 3.64 6.96h25.55c2.32 0 4.65-1.1 5.96-3.1l84.7-122.32c2.1-2.94 0-6.97-3.56-6.97l.08.08z"/>
  <path fill="#179BD7" d="M735.48 204.52h-53.03c-3.64 0-6.66 2.63-7.28 6.2l-21.3 135.86c-.45 2.56 1.56 5.03 4.35 5.03h27.25c2.56 0 4.65-1.85 5.1-4.4l6.05-38.48c.54-3.48 3.64-6.2 7.28-6.2h16.72c34.84 0 54.97-16.8 60.4-50.3 2.3-14.57 0-26.1-6.98-34.08-7.43-8.9-20.75-13.55-38.48-13.55l-.08-.08zm6.04 49.54c-2.86 19.05-17.42 19.05-31.43 19.05h-7.9l5.4-35.37c.48-2.17 2.34-3.87 4.43-3.87h3.7c9.53 0 18.6 0 23.24 5.57 2.8 3.25 3.64 8.05 2.55 14.7v-.06zm152.13-.6h-25.3c-2.18 0-4.04 1.53-4.35 3.86l-1.16 6.96-1.78-2.55c-5.42-7.98-17.65-10.6-29.9-10.6-28 0-51.86 21.2-56.5 50.93-2.56 14.87.93 29.04 9.3 38.95 7.73 9.14 18.8 12.93 31.96 12.93 22.45 0 35-14.55 35-14.55l-1.1 6.97c-.45 2.78 1.56 5.26 4.35 5.26H877c3.57 0 6.6-2.62 7.2-6.18l13.86-86.94c.4-2.63-1.7-5.1-4.4-5.1v.07zm-35.3 49.38c-2.48 14.48-13.94 24.23-28.65 24.23-7.27 0-13.16-2.32-17.03-6.97-3.7-4.33-5.1-10.68-3.87-17.8 2.32-14.25 13.94-24.3 28.34-24.3 7.2 0 13.16 2.3 17.03 6.95 3.87 4.5 5.26 10.84 4.18 17.8v.1zm65.26-94.6L901.95 346.5c-.55 2.56 1.54 5.04 4.25 5.04h21.83c3.63 0 6.73-2.64 7.27-6.2l21.6-135.8c.4-2.62-1.55-5.02-4.33-5.02H928.1c-2.16 0-4.02 1.55-4.33 3.7h-.16z"/>
  <path fill="#253B80" d="M116.46 377.94l4.03-25.7-9.15-.16H68.38l29.97-189.76c0-.62.38-1.16.77-1.55.46-.38 1-.6 1.55-.6h72.77c24 0 40.65 5.02 49.4 14.93 4.1 4.64 6.73 9.52 7.97 14.86 1.32 5.58 1.32 12.4 0 20.44v5.96l4.03 2.32c3.4 1.78 6.2 3.87 8.2 6.2 3.65 4.02 5.9 9.06 6.82 15.02 1 6.2.62 13.55-.93 21.83-1.85 9.6-4.87 17.8-8.98 24.77-3.7 6.2-8.5 11.38-14.1 15.5-5.4 3.7-11.75 6.64-19.03 8.5-6.96 1.78-15 2.7-23.76 2.7h-5.65c-4.04 0-7.98 1.56-11.08 4.12-3.1 2.63-5.2 6.2-5.8 10.22l-.47 2.32-7.2 45.37-.3 1.54c0 .62-.24.93-.48 1.1-.23.14-.46.22-.77.22h-34.84v-.17z"/>
  <path fill="#179BD7" d="M238.63 211.64l-.78 4.26c-9.6 49.16-42.34 66.1-84.15 66.1h-21.3c-5.1 0-9.44 3.73-10.2 8.76l-10.85 69.14-3.1 19.58c-.54 3.33 2.02 6.35 5.42 6.35h37.7c4.5 0 8.3-3.25 9-7.74l.37-1.87 7.13-45.13.46-2.33c.78-4.64 4.5-7.74 8.98-7.74h5.66c36.62 0 65.27-14.94 73.55-57.9 3.57-17.97 1.8-33-7.5-43.52-2.8-3.08-6.2-5.8-10.3-7.96h-.07z"/>
  <path fill="#222D65" d="M228.56 207.6l-4.5-1.15-4.8-.93c-5.72-.93-12-1.3-18.72-1.3h-56.98c-1.4 0-2.7.37-3.87.92-2.64 1.3-4.66 3.87-5.12 6.8l-12 76.65-.3 2.32c.76-5.1 5.17-8.83 10.28-8.83h21.3c41.8 0 74.55-17.04 84.15-66.13l.78-4.25c-2.47-1.32-5.03-2.33-7.9-3.33l-2.16-.8h-.16z"/>
  <path fill="#253B80" d="M134.5 211.87c.62-3.1 2.56-5.57 5.2-6.8 1.15-.55 2.47-.8 3.86-.8h56.98c6.73 0 13 .33 18.73 1.25l4.8.93 4.5 1.16c.77.25 1.54.48 2.16.8 2.87.76 5.42 1.92 7.9 3.24 2.86-18.2 0-30.58-9.84-41.8-10.84-12.4-30.43-17.58-55.44-17.58h-72.62c-5.1 0-9.44 3.7-10.22 8.75l-30.2 191.77c-.76 3.88 2.34 7.2 6.05 7.2h44.9l11.23-71.38 12-76.73z"/>
</svg>