<svg xmlns="http://www.w3.org/2000/svg" viewBox="-264.1 124.48 1488.2 310.75">
  <path fill="#00579F" d="M415.87 430.72H338.4l48.48-300.86h77.76m233.28 7.4c-15.36-6.06-39.65-12.78-69.7-12.78-76.8 0-130.94 41-131.23 99.55-.68 43.2 38.68 67.2 68.15 81.6 30.05 14.7 40.32 24.3 40.32 37.44-.3 20.16-24.3 29.38-46.75 29.38-31 0-47.62-4.8-72.96-15.94l-10.27-4.8-10.86 67.5c18.24 8.25 51.84 15.65 86.78 16.03 81.6 0 134.7-40.32 135.36-102.72.3-34.26-20.54-60.47-65.28-81.97-27.26-13.73-43.87-23.04-43.87-37.06.3-12.86 14.02-25.92 44.74-25.92 25.34-.67 43.87 5.38 57.98 11.52l7 3.17 10.57-65zm103.4 186.9l31-84.2c-.3.68 6.43-17.56 10.27-28.8l5.46 25.93 17.86 87.06h-64.6zm96-194.2h-60.2c-18.53 0-32.64 5.37-40.6 24.95L681 430.73h81.6l16.32-45.12h99.84l9.22 45.12h72l-62.7-300.77zm-624 0L197.08 335l-8.27-41.56c-14.1-48-58.27-100.13-107.52-126.05L151 430.42h82.28l122.2-300.48h-82.17z"/>
  <path fill="#FAA61A" d="M126.43 129.95H1.25L0 136c97.63 24.96 162.24 85.15 188.83 157.44L161.57 155.2c-4.42-19.2-18.24-24.67-35.14-25.25z"/>
</svg>