<svg xmlns="http://www.w3.org/2000/svg" viewBox="0 0 205.75 201.76">
  <g id="grid">
    <path fill="#E6E6E6" d="M3 49.26h200c.65 0 .65-1 0-1H3c-.65 0-.65 1 0 1zM3 99.26h200c.65 0 .65-1 0-1H3c-.65 0-.65 1 0 1zM3 149.26h200c.65 0 .65-1 0-1H3c-.65 0-.65 1 0 1z"/>
    <path fill="#E6E6E6" d="M53.5 21.26v175c0 .65 1 .65 1 0v-56.84V46.3 21.26c0-.65-1-.65-1 0zM103.5 21.26v175c0 .65 1 .65 1 0v-56.84V46.3 21.26c0-.65-1-.65-1 0zM153.5 21.26v175c0 .65 1 .65 1 0v-56.84V46.3 21.26c0-.65-1-.65-1 0z"/>
  </g>
  <g id="axis">
    <path fill="none" stroke="#000" stroke-width="2" stroke-miterlimit="10" d="M4 23.76v175M3 197.76h199"/>
    <path d="M5 23.76c0 .55-.45 1-1 1s-1-.45-1-1 .45-1 1-1 1 .45 1 1zM203 197.76c0 .55-.45 1-1 1s-1-.45-1-1 .45-1 1-1 1 .45 1 1zM55 160.76c0 1.1-.9 2-2 2s-2-.9-2-2 .9-2 2-2 2 .9 2 2zM105 143.76c0 1.1-.9 2-2 2s-2-.9-2-2 .9-2 2-2 2 .9 2 2zM155 108.76c0 1.1-.9 2-2 2s-2-.9-2-2 .9-2 2-2 2 .9 2 2z"/>
    <path fill="none" stroke="#000" stroke-width="2" stroke-miterlimit="10" d="M54 198.76v2"/>
    <path d="M55 200.76c0 .55-.45 1-1 1s-1-.45-1-1 .45-1 1-1 1 .45 1 1z"/>
    <path fill="none" stroke="#000" stroke-width="2" stroke-miterlimit="10" d="M104 198.76v2"/>
    <path d="M105 200.76c0 .55-.45 1-1 1s-1-.45-1-1 .45-1 1-1 1 .45 1 1z"/>
    <path fill="none" stroke="#000" stroke-width="2" stroke-miterlimit="10" d="M154 198.76v2"/>
    <path d="M155 200.76c0 .55-.45 1-1 1s-1-.45-1-1 .45-1 1-1 1 .45 1 1z"/>
    <path fill="none" stroke="#000" stroke-width="2" stroke-miterlimit="10" d="M3 148.76H1"/>
    <path d="M1 149.76c-.55 0-1-.45-1-1s.45-1 1-1 1 .45 1 1-.45 1-1 1z"/>
    <path fill="none" stroke="#000" stroke-width="2" stroke-miterlimit="10" d="M3 98.76H1"/>
    <path d="M1 99.76c-.55 0-1-.45-1-1s.45-1 1-1 1 .45 1 1-.45 1-1 1z"/>
    <path fill="none" stroke="#000" stroke-width="2" stroke-miterlimit="10" d="M3 48.76H1"/>
    <path d="M1 49.76c-.55 0-1-.45-1-1s.45-1 1-1 1 .45 1 1-.45 1-1 1z"/>
  </g>
  <path fill="none" stroke="#000" stroke-width="4" stroke-miterlimit="10" d="M4 168.8l49-8.04" class="chartSegment" id="chart_y1"/>
  <path fill="none" stroke="#000" stroke-width="4" stroke-miterlimit="10" d="M53 160.76l50-17" class="chartSegment" id="chart_y2"/>
  <path fill="none" stroke="#000" stroke-width="4" stroke-miterlimit="10" d="M103 143.76l50-35" class="chartSegment" id="chart_y3"/>
  <g class="chartSegment" id="chart_y4">
    <path fill="#FFF" d="M191.53 8.07l9.54-5.1 2.65 10.23-2.65-10.24z"/>
    <path d="M201.78 13.7l-2-7.77-7.3 3.9-1.9-3.52L202.4 0l3.28 12.7z"/>
    <path fill="none" stroke="#000" stroke-width="4" stroke-miterlimit="10" d="M153 108.76L200.74 3.72"/>
    <circle cx="203.75" cy="13.28" r="2"/>
    <circle cx="191.7" cy="7.98" r="2"/>
  </g>
</svg>
