<?xml version="1.0" encoding="utf-8"?>
<!-- Generator: Adobe Illustrator 16.0.0, SVG Export Plug-In . SVG Version: 6.00 Build 0)  -->
<!DOCTYPE svg PUBLIC "-//W3C//DTD SVG 1.1//EN" "http://www.w3.org/Graphics/SVG/1.1/DTD/svg11.dtd">
<svg version="1.1" xmlns="http://www.w3.org/2000/svg" xmlns:xlink="http://www.w3.org/1999/xlink" x="0px" y="0px"
	 width="205.75px" height="201.76px" viewBox="0 0 205.75 201.76" enable-background="new 0 0 205.75 201.76" xml:space="preserve">
<g id="grid">
	<g>
		<g>
			<path fill="#E6E6E6" d="M3,49.26c17.284,0,34.568,0,51.852,0c32.099,0,64.198,0,96.296,0c17.283,0,34.567,0,51.852,0
				c0.645,0,0.645-1,0-1c-17.284,0-34.568,0-51.852,0c-32.099,0-64.198,0-96.296,0c-17.284,0-34.568,0-51.852,0
				C2.355,48.26,2.355,49.26,3,49.26L3,49.26z"/>
		</g>
	</g>
	<g>
		<g>
			<path fill="#E6E6E6" d="M3,99.26c17.284,0,34.568,0,51.852,0c32.099,0,64.198,0,96.296,0c17.283,0,34.567,0,51.852,0
				c0.645,0,0.645-1,0-1c-17.284,0-34.568,0-51.852,0c-32.099,0-64.198,0-96.296,0c-17.284,0-34.568,0-51.852,0
				C2.355,98.26,2.355,99.26,3,99.26L3,99.26z"/>
		</g>
	</g>
	<g>
		<g>
			<path fill="#E6E6E6" d="M3,149.26c17.284,0,34.568,0,51.852,0c32.099,0,64.198,0,96.296,0c17.283,0,34.567,0,51.852,0
				c0.645,0,0.645-1,0-1c-17.284,0-34.568,0-51.852,0c-32.099,0-64.198,0-96.296,0c-17.284,0-34.568,0-51.852,0
				C2.355,148.26,2.355,149.26,3,149.26L3,149.26z"/>
		</g>
	</g>
	<g>
		<g>
			<path fill="#E6E6E6" d="M53.5,21.26c0,18.947,0,37.894,0,56.84c0,31.041,0,62.082,0,93.122c0,8.347,0,16.692,0,25.038
				c0,0.645,1,0.645,1,0c0-18.947,0-37.894,0-56.841c0-31.04,0-62.081,0-93.122c0-8.346,0-16.692,0-25.038
				C54.5,20.615,53.5,20.615,53.5,21.26L53.5,21.26z"/>
		</g>
	</g>
	<g>
		<g>
			<path fill="#E6E6E6" d="M103.5,21.26c0,18.947,0,37.894,0,56.84c0,31.041,0,62.082,0,93.122c0,8.347,0,16.692,0,25.038
				c0,0.645,1,0.645,1,0c0-18.947,0-37.894,0-56.841c0-31.04,0-62.081,0-93.122c0-8.346,0-16.692,0-25.038
				C104.5,20.615,103.5,20.615,103.5,21.26L103.5,21.26z"/>
		</g>
	</g>
	<g>
		<g>
			<path fill="#E6E6E6" d="M153.5,21.26c0,18.947,0,37.894,0,56.84c0,31.041,0,62.082,0,93.122c0,8.347,0,16.692,0,25.038
				c0,0.645,1,0.645,1,0c0-18.947,0-37.894,0-56.841c0-31.04,0-62.081,0-93.122c0-8.346,0-16.692,0-25.038
				C154.5,20.615,153.5,20.615,153.5,21.26L153.5,21.26z"/>
		</g>
	</g>
</g>
<g id="axis">
	<line fill="none" stroke="#000000" stroke-width="2" stroke-miterlimit="10" x1="4" y1="23.76" x2="4" y2="198.76"/>
	<line fill="none" stroke="#000000" stroke-width="2" stroke-miterlimit="10" x1="3" y1="197.76" x2="202" y2="197.76"/>
	<path d="M5,23.76c0,0.552-0.447,1-1,1l0,0c-0.553,0-1-0.448-1-1l0,0c0-0.552,0.447-1,1-1l0,0C4.553,22.76,5,23.208,5,23.76L5,23.76
		z"/>
	<path d="M203,197.76c0,0.553-0.447,1-1,1l0,0c-0.553,0-1-0.447-1-1l0,0c0-0.553,0.447-1,1-1l0,0
		C202.553,196.76,203,197.208,203,197.76L203,197.76z"/>
	<path d="M55,160.76c0,1.105-0.895,2-2,2l0,0c-1.105,0-2-0.895-2-2l0,0c0-1.105,0.895-2,2-2l0,0C54.105,158.76,55,159.655,55,160.76
		L55,160.76z"/>
	<path d="M105,143.76c0,1.105-0.895,2-2,2l0,0c-1.105,0-2-0.895-2-2l0,0c0-1.105,0.895-2,2-2l0,0
		C104.105,141.76,105,142.655,105,143.76L105,143.76z"/>
	<path d="M155,108.76c0,1.105-0.895,2-2,2l0,0c-1.105,0-2-0.895-2-2l0,0c0-1.105,0.895-2,2-2l0,0
		C154.105,106.76,155,107.655,155,108.76L155,108.76z"/>
	<line fill="none" stroke="#000000" stroke-width="2" stroke-miterlimit="10" x1="54" y1="198.76" x2="54" y2="200.76"/>
	<path d="M55,200.76c0,0.553-0.447,1-1,1l0,0c-0.553,0-1-0.447-1-1l0,0c0-0.553,0.447-1,1-1l0,0C54.553,199.76,55,200.208,55,200.76
		L55,200.76z"/>
	<line fill="none" stroke="#000000" stroke-width="2" stroke-miterlimit="10" x1="104" y1="198.76" x2="104" y2="200.76"/>
	<path d="M105,200.76c0,0.553-0.447,1-1,1l0,0c-0.553,0-1-0.447-1-1l0,0c0-0.553,0.447-1,1-1l0,0
		C104.553,199.76,105,200.208,105,200.76L105,200.76z"/>
	<line fill="none" stroke="#000000" stroke-width="2" stroke-miterlimit="10" x1="154" y1="198.76" x2="154" y2="200.76"/>
	<path d="M155,200.76c0,0.553-0.447,1-1,1l0,0c-0.553,0-1-0.447-1-1l0,0c0-0.553,0.447-1,1-1l0,0
		C154.553,199.76,155,200.208,155,200.76L155,200.76z"/>
	<line fill="none" stroke="#000000" stroke-width="2" stroke-miterlimit="10" x1="3" y1="148.76" x2="1" y2="148.76"/>
	<path d="M1,149.76c-0.553,0-1-0.447-1-1l0,0c0-0.553,0.447-1,1-1l0,0c0.553,0,1,0.447,1,1l0,0C2,149.313,1.553,149.76,1,149.76
		L1,149.76z"/>
	<line fill="none" stroke="#000000" stroke-width="2" stroke-miterlimit="10" x1="3" y1="98.76" x2="1" y2="98.76"/>
	<path d="M1,99.76c-0.553,0-1-0.447-1-1l0,0c0-0.553,0.447-1,1-1l0,0c0.553,0,1,0.447,1,1l0,0C2,99.313,1.553,99.76,1,99.76L1,99.76
		z"/>
	<line fill="none" stroke="#000000" stroke-width="2" stroke-miterlimit="10" x1="3" y1="48.76" x2="1" y2="48.76"/>
	<path d="M1,49.76c-0.553,0-1-0.447-1-1l0,0c0-0.553,0.447-1,1-1l0,0c0.553,0,1,0.447,1,1l0,0C2,49.313,1.553,49.76,1,49.76L1,49.76
		z"/>
</g>
<g id="chart_x5F_y1">
	<line fill="none" stroke="#000000" stroke-width="4" stroke-miterlimit="10" x1="4" y1="168.811" x2="53" y2="160.76"/>
</g>
<g id="chart_x5F_y2">
	<line fill="none" stroke="#000000" stroke-width="4" stroke-miterlimit="10" x1="53" y1="160.76" x2="103" y2="143.76"/>
</g>
<g id="chart_x5F_y3">
	<line fill="none" stroke="#000000" stroke-width="4" stroke-miterlimit="10" x1="103" y1="143.76" x2="153" y2="108.76"/>
</g>
<g id="chart_x5F_y4">
	<g>
		<polygon fill="#FFFFFF" points="191.532,8.073 201.073,2.964 203.72,13.198 201.073,2.964 		"/>
		<polygon points="201.783,13.699 199.774,5.929 192.477,9.836 190.588,6.31 202.372,0 205.656,12.697 		"/>
	</g>
	<line fill="none" stroke="#000000" stroke-width="4" stroke-miterlimit="10" x1="153" y1="108.76" x2="200.744" y2="3.724"/>
	<circle cx="203.75" cy="13.282" r="2"/>
	<circle cx="191.7" cy="7.982" r="2"/>
</g>
</svg>
