<svg xmlns="http://www.w3.org/2000/svg" viewBox="0 0 291.32 291.32">
  <path d="M145.66 0c80.44 0 145.66 65.22 145.66 145.66S226.1 291.32 145.66 291.32 0 226.1 0 145.66 65.2 0 145.66 0z" fill="#3F729B"/>
  <path d="M195.93 63.7H95.38C77.9 63.7 63.7 77.93 63.7 95.4v100.56c0 17.47 14.22 31.67 31.68 31.67h100.56c17.47 0 31.67-14.2 31.67-31.66V95.38c0-17.46-14.2-31.67-31.67-31.67zm9.98 18.33h3.6v27.2l-27.4.1-.1-27.2 23.9-.1zm-60.24 36.2c22.73 0 27.42 21.35 27.42 27.44 0 15.1-12.3 27.4-27.42 27.4-15.12 0-27.42-12.3-27.42-27.4 0-6.1 4.7-27.43 27.42-27.43zm64 75.73c0 8.65-7.05 15.7-15.72 15.7H97.07c-8.66 0-15.7-7.04-15.7-15.7v-66.54h22.75c-2.1 5.2-3.3 12.3-3.3 18.25 0 24.7 20.1 44.82 44.8 44.82s44.82-20.12 44.82-44.83c0-5.95-1.2-13.06-3.3-18.25h22.5v66.54z" fill="#FFF"/>
</svg>