<svg xmlns="http://www.w3.org/2000/svg" viewBox="117.95 299.04 526.9 275.93">
  <g fill="#00953D">
    <path d="M276.9 574.97h-45.42l-73.1-96.1c-2.73-3.6-4.4-6.05-4.98-7.32h-.58v103.42h-34.87V364.9h34.87v98.74h.58c1.17-2.15 2.83-4.54 4.98-7.18l70.46-91.55h41.75L188.1 465.7l88.77 109.27zM473.76 574.97h-38.23l-18.9-53.47h-82.6l-18.18 53.47h-38.08l78.66-210.06h39.26l78.06 210.07zm-66.36-81.9l-29.15-83.78c-.87-2.74-1.8-7.14-2.78-13.2h-.6c-.86 5.57-1.84 9.97-2.92 13.2l-28.85 83.78h64.3zM502.62 574.97V364.9h66.65c20.3 0 36.4 4.45 48.27 13.34 11.86 8.88 17.8 20.46 17.8 34.7 0 11.93-3.37 22.28-10.1 31.07-6.75 8.8-16.08 15.05-28 18.76v.58c14.46 1.67 26 7 34.65 16.04 8.64 9.04 12.96 20.78 12.96 35.23 0 17.98-7.08 32.53-21.24 43.66-14.16 11.14-32.03 16.7-53.62 16.7h-67.38zm34.72-182.1v59.78h22.55c12.1 0 21.6-2.85 28.5-8.57s10.3-13.8 10.3-24.24c0-17.97-12-26.95-36.02-26.95h-25.34zm0 87.76v66.5h29.73c13 0 23.02-3 30.1-9 7.08-6 10.62-14.3 10.62-24.83 0-21.78-15.1-32.67-45.27-32.67h-25.2z"/>
  </g>
  <path d="M264.63 508.47c10.7 10.7 29.36 10.7 40.07 0l93.94-93.95c2.56-2.56 4.02-6.1 4.02-9.7 0-3.65-1.43-7.1-4.03-9.7-5.33-5.33-14.04-5.35-19.37 0L315.1 459.3c-3.3 3.3-8.66 3.3-11.97 0-3.3-3.3-3.3-8.67 0-11.97l64.16-64.17c11.92-11.93 31.35-11.93 43.3 0 5.8 5.8 8.98 13.5 8.98 21.66 0 8.07-3.27 15.96-8.97 21.66l-93.93 93.95c-8.55 8.55-19.9 13.26-32 13.26-12.1 0-23.46-4.72-32-13.27"/>
  <path fill="#00953D" d="M353.6 371.75l2.58-6.84h39.25l78.08 210.07H435.3l-18.9-53.47h-82.62l-18.16 53.47h-38.08m129.63-81.9L378 409.3c-.87-2.74-1.8-7.14-2.78-13.2h-.6c-.86 5.57-1.84 9.97-2.92 13.2l-28.85 83.78h64.3z"/>
  <path d="M284.67 533.7c-12.1 0-23.46-4.72-32-13.27-17.65-17.64-17.65-46.35 0-64l139.9-139.9c11.27-11.3 26.27-17.5 42.22-17.5 15.94 0 30.94 6.2 42.22 17.5 11.28 11.28 17.5 26.27 17.5 42.22s-6.2 30.94-17.5 42.2L366.9 511.1c-3.32 3.3-8.67 3.3-11.98 0-3.3-3.32-3.3-8.67 0-11.98L465.06 389c8.08-8.1 12.53-18.83 12.53-30.25 0-11.43-4.47-22.18-12.55-30.26-8.1-8.1-18.83-12.54-30.26-12.54-11.44 0-22.18 4.45-30.26 12.53l-139.9 139.9c-11.05 11.05-11.05 29.02 0 40.07"/>
</svg>
