<svg version="1.1" xmlns="http://www.w3.org/2000/svg" xmlns:xlink="http://www.w3.org/1999/xlink" x="0px" y="0px" viewBox="0 0 200 200" enable-background="new 0 0 200 200" xml:space="preserve">
<path fill="#ffffff" stroke="#000" stroke-width="5" d="M195.424,90.92c3.932-3.832,5.32-9.456,3.624-14.684c-1.7-5.228-6.128-8.96-11.567-9.752l-48.369-7.028
	c-2.059-0.3-3.84-1.592-4.76-3.46l-21.623-43.824c-2.429-4.924-7.355-7.984-12.849-7.984c-5.488,0-10.416,3.06-12.844,7.984
	L65.408,56c-0.92,1.868-2.704,3.16-4.764,3.46l-48.368,7.028C6.84,67.276,2.408,71.012,0.708,76.24
	C-0.988,81.468,0.4,87.092,4.332,90.924l34.996,34.112c1.492,1.456,2.176,3.552,1.824,5.6l-8.256,48.169
	c-0.732,4.239,0.38,8.363,3.124,11.615c4.264,5.068,11.708,6.612,17.66,3.484l43.256-22.744c1.808-0.948,4.083-0.94,5.888,0
	l43.26,22.744c2.104,1.106,4.348,1.668,6.664,1.668c4.229,0,8.236-1.881,10.992-5.152c2.748-3.252,3.855-7.384,3.123-11.615
	l-8.26-48.169c-0.353-2.052,0.332-4.144,1.824-5.6L195.424,90.92z"/>
<path fill="#aa9100" stroke="#4d4d4d" stroke-width="5" d="M160.789,94.168c2.506-2.443,3.391-6.029,2.31-9.361c-1.084-3.333-3.906-5.712-7.374-6.217l-30.835-4.48
	c-1.313-0.191-2.448-1.015-3.034-2.206L108.07,43.966c-1.549-3.139-4.689-5.09-8.19-5.09c-3.499,0-6.641,1.951-8.188,5.09
	l-13.788,27.94c-0.587,1.191-1.724,2.015-3.037,2.206l-30.835,4.481c-3.466,0.501-6.29,2.884-7.375,6.217
	c-1.081,3.332-0.197,6.917,2.311,9.361l22.31,21.747c0.951,0.928,1.388,2.264,1.163,3.57l-5.264,30.707
	c-0.467,2.703,0.242,5.332,1.991,7.404c2.719,3.232,7.464,4.215,11.258,2.221l27.576-14.498c1.153-0.605,2.603-0.6,3.754,0
	l27.579,14.498c1.34,0.707,2.771,1.064,4.248,1.064c2.695,0,5.25-1.199,7.008-3.285c1.751-2.072,2.456-4.707,1.99-7.404
	l-5.266-30.707c-0.225-1.309,0.211-2.643,1.162-3.57L160.789,94.168z"/>
</svg>
