<svg xmlns="http://www.w3.org/2000/svg" viewBox="0 0 112.2 112.2">
  <circle cx="56.1" cy="56.1" r="56.1" fill="#55ACEE"/>
  <path d="M90.46 40.32c-2.4 1.06-5 1.78-7.7 2.1 2.77-1.65 4.9-4.28 5.9-7.4-2.6 1.52-5.47 2.64-8.52 3.24-2.44-2.6-5.93-4.23-9.8-4.23-7.4 0-13.4 6-13.4 13.4 0 1.06.12 2.08.35 3.06-11.15-.57-21.03-5.9-27.65-14.02-1.15 1.98-1.8 4.3-1.8 6.74 0 4.65 2.35 8.76 5.95 11.16-2.2-.07-4.26-.67-6.07-1.68v.17c0 6.5 4.62 11.92 10.75 13.15-1.12.3-2.3.47-3.53.47-.86 0-1.7-.1-2.52-.25 1.7 5.33 6.66 9.2 12.52 9.32-4.6 3.6-10.37 5.74-16.65 5.74-1.08 0-2.15-.06-3.2-.18 5.93 3.8 12.98 6.02 20.56 6.02C70.32 87.14 83.8 66.7 83.8 49c0-.6 0-1.17-.03-1.74 2.62-1.9 4.9-4.25 6.7-6.94z" fill="#F1F2F2"/>
</svg>